# xmcd CD database file
#
# Track frame offsets:
#	150
#	17985
#	40179
#	61985
#	84840
#	108686
#	132233
#	150445
#	167822
#	180144
#	193261
#	211574
#	235714
#
# Disc length: 3368 seconds
#
# Revision: 0
# Processed by: cddbd v1.5.1PL0 Copyright (c) Steve Scherf et al.
# Submitted via: CDex 1.51
#
DISCID=9c0d260d
DTITLE=The New Black Eagle Jazzband - The New Black Eagle Jazzband In New Orleans
DYEAR=1974
DGENRE=Jazz
TTITLE0=Papa Dip
TTITLE1=You' re Next
TTITLE2=The Curse Of The Aching Heart
TTITLE3=Snag It
TTITLE4=Bugle Boy March
TTITLE5=Storyville Blues
TTITLE6=Cataract Rag
TTITLE7=The Mooche
TTITLE8=Red Man Blues
TTITLE9=Cannonball Blues
TTITLE10=The Entertainer
TTITLE11=Love Me With A Feeling
TTITLE12=Snake Rag
EXTD=YEAR: 1974
EXTT0=
EXTT1=
EXTT2=
EXTT3=
EXTT4=
EXTT5=
EXTT6=
EXTT7=
EXTT8=
EXTT9=
EXTT10=
EXTT11=
EXTT12=
PLAYORDER=
